<svg xmlns="http://www.w3.org/2000/svg">
  <symbol viewBox="0 0 24 24" id="facebook">
    <path
      d="M24 12.0733C24 5.40541 18.6274 0 12 0C5.37258 0 0 5.40541 0 12.0733C0 18.0995 4.38823 23.0943 10.125 24V15.5633H7.07812V12.0733H10.125V9.41343C10.125 6.38755 11.9165 4.71615 14.6576 4.71615C15.9705 4.71615 17.3438 4.95195 17.3438 4.95195V7.92313H15.8306C14.3399 7.92313 13.875 8.85379 13.875 9.80857V12.0733H17.2031L16.6711 15.5633H13.875V24C19.6118 23.0943 24 18.0995 24 12.0733Z"
      fill="currentColor" />
  </symbol>
  <symbol viewBox="0 0 24 24" id="telegram">
    <path
      d="M9 17.9414L7.5 13.4414L24 1.44141L0.932997 10.3124C0.932997 10.3124 -0.0750025 10.6574 0.00449746 11.2949C0.0839975 11.9324 0.907497 12.2234 0.907497 12.2234L6.27 14.0279L8.7 21.7589L12.813 18.1424L12.8025 18.1349L18.213 22.2839C19.6725 22.9214 20.2035 21.5939 20.2035 21.5939L24 1.44141L9 17.9414Z"
      fill="currentColor" />
  </symbol>
  <symbol viewBox="0 0 24 24" id="linkedin">
    <path
      d="M3.6 9H7.2V20.4H3.6V9ZM5.4 3.3C6.6 3.3 7.5 4.2 7.5 5.4C7.35 6.45 6.45 7.5 5.4 7.5C4.2 7.5 3.3 6.45 3.3 5.4C3.3 4.2 4.2 3.3 5.4 3.3ZM9.3 9H12.75V10.5C13.5 9.3 14.85 8.7 16.2 8.7C19.8 8.7 20.4 11.1 20.4 14.1V20.4H16.8V14.85C16.8 13.5 16.8 11.85 15 11.85C13.2 11.85 12.9 13.35 12.9 14.85V20.55H9.3V9ZM19.5 0H4.5C1.5 0 0 1.5 0 4.5V19.5C0 22.5 1.5 24 4.5 24H19.5C22.5 24 24 22.5 24 19.5V4.5C24 1.5 22.5 0 19.5 0Z"
      fill="currentColor" />
  </symbol>
</svg>